<svg id="Layer_1" data-name="Layer 1" xmlns="http://www.w3.org/2000/svg" viewBox="0 0 923.99 706.61"><path d="M567.41,155.12c-4.8,5.9-20.09,64.45-88,338.63C422.25,723.54,397.44,828,398.18,833.84c2.45,19.73,27.47,26.53,40.26,10.89,5.05-5.7,19.24-60.2,85.4-326.56,43.55-175.83,80.8-326.46,82.79-334.54,2.48-11.59,2.54-16.67.27-21.91C600,145.08,578.84,141.49,567.41,155.12Z" transform="translate(-47 -146.75)"/><path d="M319.6,220.85c-9.14,4.37-270.42,267-272,273.59a25.14,25.14,0,0,0,0,10.92C49.39,513.3,313.25,777.16,322,780.14c7.94,2.58,13.7,1,21-5.76,4.37-4.17,5.36-7,5.36-14.1v-9.13L222.91,625.68,97.23,500,222.91,374.32,348.39,248.84v-9.13c0-7.15-1-9.93-5.56-14.29C336.07,218.87,327.34,217.28,319.6,220.85Z" transform="translate(-47 -146.75)"/><path d="M682.52,220.06A21.92,21.92,0,0,0,669,240.11v8.14L794.89,374.13,920.77,500,794.89,625.88,669,751.75v8.14c0,15.29,14.89,25.41,28.59,19.46,9.53-4.17,271.2-266.64,272.79-274a25.45,25.45,0,0,0,0-10.92c-1.59-6.95-263.07-269.62-272.4-273.59C690.86,217.67,688.28,217.67,682.52,220.06Z" transform="translate(-47 -146.75)"/></svg>