<svg id="Layer_1" data-name="Layer 1" xmlns="http://www.w3.org/2000/svg" viewBox="0 0 74 70.12"><defs><style>.cls-1{fill:none;}</style></defs><path class="cls-1" d="M56.24,25.73V24H30.72a2.83,2.83,0,0,0-2.83,2.83V64.43a2.83,2.83,0,0,0,2.83,2.83H68.34a2.83,2.83,0,0,0,2.83-2.83V26.81A2.82,2.82,0,0,0,68.34,24H60.65v1.75Z" transform="translate(-0.65 -0.62)"/><path d="M74.65,25a4.49,4.49,0,0,0-4.48-4.48H60.65V24h7.69a2.82,2.82,0,0,1,2.83,2.83v4.31h3.48Z" transform="translate(-0.65 -0.62)"/><rect x="70.52" y="36.91" width="3.48" height="9.59"/><path d="M71.17,53.53v10.9a2.83,2.83,0,0,1-2.83,2.83H59.49v3.47H70.17a4.48,4.48,0,0,0,4.48-4.48V53.53Z" transform="translate(-0.65 -0.62)"/><path d="M46.4.62H5.14A4.49,4.49,0,0,0,.65,5.1V46.37a4.49,4.49,0,0,0,4.49,4.48H46.4a4.49,4.49,0,0,0,4.49-4.48V5.1A4.49,4.49,0,0,0,46.4.62Zm1,43.92a2.83,2.83,0,0,1-2.83,2.83H7a2.83,2.83,0,0,1-2.83-2.83V6.93A2.84,2.84,0,0,1,7,4.09H44.58a2.84,2.84,0,0,1,2.83,2.84Z" transform="translate(-0.65 -0.62)"/><path d="M23.68,44.32a.38.38,0,0,0,.29.1L43.21,44a1.2,1.2,0,0,0,.65-.19,1.3,1.3,0,0,0,.19-.66l.43-19.25a.47.47,0,0,0-.08-.27.6.6,0,0,0-.29-.1l-1.78-.05a.39.39,0,0,0-.28.08.52.52,0,0,0-.09.3l-.31,15.88L22,20.05a.65.65,0,0,0-.92,0l-.93.93a.66.66,0,0,0,0,.92L39.8,41.59l-15.9.3a.46.46,0,0,0-.3.09.37.37,0,0,0-.08.29L23.58,44a.35.35,0,0,0,.1.29" transform="translate(-0.65 -0.62)"/><rect x="43.84" y="66.64" width="10.59" height="3.48"/><path d="M24.42,66.25a4.47,4.47,0,0,0,4.48,4.48H40.08V67.26H30.72a2.83,2.83,0,0,1-2.83-2.83V61.06H24.42Z" transform="translate(-0.65 -0.62)"/><rect x="46.76" y="19.88" width="8.83" height="3.48"/><rect x="23.76" y="50.24" width="3.48" height="6.17"/></svg>