<svg id="Layer_1" data-name="Layer 1" xmlns="http://www.w3.org/2000/svg" viewBox="0 0 953.6 980"><path d="M23.2,513.2a26.5,26.5,0,1,1,53,.1c0,113.2,44.1,219.6,124.1,299.6S386.7,937,499.9,937s219.6-44.1,299.6-124.1S923.6,626.5,923.6,513.3,879.5,293.7,799.5,213.7,613.1,89.6,499.9,89.6A422.42,422.42,0,0,0,185.2,229.5c-5.5,6.1-10.9,12.4-16,18.8H340.9a26.6,26.6,0,1,1,0,53.2H102.6A26.63,26.63,0,0,1,76,274.9V36.6a26.6,26.6,0,1,1,53.2,0V213.4c5.4-6.6,10.9-13.1,16.6-19.4A476.76,476.76,0,1,1,685.6,952.5,476.69,476.69,0,0,1,23.2,513.2Z" transform="translate(-23.2 -10)"/></svg>